<?xml version="1.0" encoding="UTF-8" standalone="no"?>
<svg
   xmlns:dc="http://purl.org/dc/elements/1.1/"
   xmlns:cc="http://creativecommons.org/ns#"
   xmlns:rdf="http://www.w3.org/1999/02/22-rdf-syntax-ns#"
   xmlns:svg="http://www.w3.org/2000/svg"
   xmlns="http://www.w3.org/2000/svg"
   xml:space="preserve"
   style="enable-background:new 0 0 64 64;"
   viewBox="0 0 64 64"
   height="64px"
   width="64px"
   y="0px"
   x="0px"
   id="Layer_1"
   version="1.1"><metadata
     id="metadata15"><rdf:RDF><cc:Work
         rdf:about=""><dc:format>image/svg+xml</dc:format><dc:type
           rdf:resource="http://purl.org/dc/dcmitype/StillImage" /><dc:title></dc:title></cc:Work></rdf:RDF></metadata><defs
     id="defs13" /><g
     id="icon-m-battery"><rect
       height="64"
       width="64"
       style="opacity:0;fill:#ffffff"
       id="icon-m-battery_1_"
       x="0"
       y="0" /><path
       id="path3"
       d="m 27.194,49.023 v 0 c -0.387,0 -0.741,-0.177 -0.971,-0.484 -0.346,-0.463 -0.37,-1.114 -0.077,-2.112 l 3.037,-10.454 c 0.171,-0.33 0.217,-0.635 0.12,-0.794 -0.098,-0.16 -0.39,-0.26 -0.764,-0.26 h -7.685 c -1.637,0 -2.137,-0.743 -2.29,-1.186 -0.15,-0.438 -0.214,-1.313 1.025,-2.306 L 35.312,15.916 c 0.598,-0.69 1.132,-1.022 1.678,-1.022 0.388,0 0.741,0.177 0.972,0.485 0.347,0.462 0.369,1.114 0.075,2.113 l -3.035,10.453 c -0.171,0.331 -0.217,0.635 -0.12,0.794 0.098,0.16 0.391,0.259 0.765,0.259 h 7.684 c 1.636,0 2.136,0.743 2.289,1.186 0.15,0.438 0.215,1.314 -1.026,2.308 L 28.87,48.001 c -0.596,0.689 -1.129,1.022 -1.676,1.022 z m 3.813,-12.225 -2.538,8.794 14.792,-14.593 h -7.613 c -1.1,0 -2.001,-0.444 -2.473,-1.219 -0.456,-0.749 -0.454,-1.713 0.004,-2.659 l 2.538,-8.797 -14.791,14.595 h 7.613 c 1.1,0 2,0.444 2.473,1.22 0.456,0.75 0.453,1.714 -0.005,2.659 z"
       style="fill:#ffffff" /><g
       id="g7"
       style="opacity:0.6"><path
         id="path5"
         d="M 49.729,54 H 14.272 C 11.917,54 10,52.083 10,49.728 V 14.272 C 10,11.917 11.917,10 14.272,10 H 49.729 C 52.084,10 54,11.917 54,14.272 V 49.727 C 54,52.083 52.084,54 49.729,54 Z M 14.272,12 C 13.019,12 12,13.02 12,14.272 V 49.727 C 12,50.98 13.019,52 14.272,52 H 49.729 C 50.981,52 52,50.98 52,49.728 V 14.272 C 52,13.02 50.981,12 49.729,12 Z"
         style="fill:#ffffff" /></g></g><g
     id="text75"
     style="font-style:normal;font-weight:normal;font-size:16px;line-height:1.25;font-family:sans-serif;letter-spacing:0px;word-spacing:0px;fill:#ffffff;fill-opacity:1;stroke:none"
     aria-label="P"><path
       id="path48"
       style=""
       d="m 16.436573,15.937899 v 4.382812 h 1.984375 q 1.101563,0 1.703125,-0.570312 0.601563,-0.570313 0.601563,-1.625 0,-1.046875 -0.601563,-1.617188 -0.601562,-0.570312 -1.703125,-0.570312 z m -1.578125,-1.296875 h 3.5625 q 1.960938,0 2.960938,0.890625 1.007812,0.882812 1.007812,2.59375 0,1.726562 -1.007812,2.609375 -1,0.882812 -2.960938,0.882812 h -1.984375 v 4.6875 h -1.578125 z" /></g></svg>